<?xml version="1.0" standalone="no"?>
<!DOCTYPE svg PUBLIC "-//W3C//DTD SVG 20010904//EN"
 "http://www.w3.org/TR/2001/REC-SVG-20010904/DTD/svg10.dtd">
<svg version="1.0" xmlns="http://www.w3.org/2000/svg"
 width="700.000000pt" height="700.000000pt" viewBox="0 0 700.000000 700.000000"
 preserveAspectRatio="xMidYMid meet">
<metadata>
Created by potrace 1.14, written by Peter Selinger 2001-2017
</metadata>
<g transform="translate(0.000000,700.000000) scale(0.100000,-0.100000)"
fill="#000000" stroke="none">
<path d="M1545 6990 c-27 -4 -70 -11 -95 -14 -145 -22 -334 -83 -483 -157
-400 -198 -703 -534 -859 -954 -17 -44 -31 -84 -32 -90 -2 -5 -8 -30 -15 -54
-7 -24 -22 -89 -34 -145 l-22 -101 -2 -1950 c-1 -1849 0 -1955 17 -2055 22
-124 50 -232 85 -326 15 -38 29 -78 32 -88 17 -55 186 -346 212 -366 4 -3 17
-18 30 -35 238 -310 605 -536 1021 -627 l105 -23 2000 0 2000 0 102 23 c753
166 1285 745 1382 1502 12 99 13 3842 0 3930 -5 36 -12 83 -15 104 -8 60 -49
212 -78 292 -38 104 -124 284 -159 329 -4 6 -35 50 -70 100 -63 91 -239 277
-312 331 -22 16 -42 32 -45 35 -12 14 -160 110 -223 143 -74 41 -181 87 -267
116 -103 34 -159 48 -310 77 -49 9 -3904 12 -3965 3z"/>
</g>
</svg>
