<?xml version="1.0" encoding="utf-8"?>
<!-- Generator: Adobe Illustrator 22.0.1, SVG Export Plug-In . SVG Version: 6.00 Build 0)  -->
<svg version="1.1" id="Layer_1" xmlns="http://www.w3.org/2000/svg" xmlns:xlink="http://www.w3.org/1999/xlink" x="0px" y="0px"
	 viewBox="0 0 28 20" style="enable-background:new 0 0 28 20;" xml:space="preserve">
<style type="text/css">
	.st0{fill:#FFFFFF;filter:url(#Adobe_OpacityMaskFilter);}
	.st1{mask:url(#e_1_);}
	.st2{fill:#FFFFFF;}
	.st3{fill:#191919;}
	.st4{fill:#FFFFFF;filter:url(#Adobe_OpacityMaskFilter_1_);}
	.st5{mask:url(#e_3_);}
	.st6{filter:url(#d);}
	.st7{fill:#F44653;}
</style>
<filter  height="145%" id="d" width="110.7%" x="-5.4%" y="-22.5%">
	<feMorphology  in="SourceAlpha" operator="dilate" radius=".5" result="shadowSpreadOuter1"></feMorphology>
	<feOffset  in="shadowSpreadOuter1" result="shadowOffsetOuter1"></feOffset>
	<feColorMatrix  in="shadowOffsetOuter1" values="0 0 0 0 0   0 0 0 0 0   0 0 0 0 0  0 0 0 0.06 0"></feColorMatrix>
</filter>
<defs>
	<filter id="Adobe_OpacityMaskFilter" filterUnits="userSpaceOnUse" x="0" y="0" width="28" height="10">
		<feColorMatrix  type="matrix" values="1 0 0 0 0  0 1 0 0 0  0 0 1 0 0  0 0 0 1 0"/>
	</filter>
</defs>
<mask maskUnits="userSpaceOnUse" x="0" y="0" width="28" height="10" id="e_1_">
	<path class="st0" d="M3,0h22c1.7,0,3,2,3,4.5v21c0,2.5-1.3,4.5-3,4.5H3c-1.7,0-3-2-3-4.5v-21C0,2,1.3,0,3,0z"/>
</mask>
<g class="st1">
	<path class="st2" d="M0,10l0-5.9c0-1.7,1.1-4,3-4h22c1.7,0,2.9,2.4,2.9,4V10H0z"/>
	<path class="st3" d="M3,0.1L3,0.1L3,0.1l22,0c1.7,0,2.8,2.4,2.8,4v5.8H0.1V4.1C0.1,2.4,1.2,0.1,3,0.1 M3,0C1.1,0,0,2.4,0,4.1V10h28
		V4.1C28,2.3,26.8,0,25.1,0L3,0C3.1,0,3,0,3,0L3,0z"/>
</g>
<defs>
	<filter id="Adobe_OpacityMaskFilter_1_" filterUnits="userSpaceOnUse" x="-1.5" y="7.8" width="31" height="14">
		<feColorMatrix  type="matrix" values="1 0 0 0 0  0 1 0 0 0  0 0 1 0 0  0 0 0 1 0"/>
	</filter>
</defs>
<mask maskUnits="userSpaceOnUse" x="-1.5" y="7.8" width="31" height="14" id="e_3_">
	<path class="st4" d="M3-10h22c1.7,0,3,2,3,4.5v21c0,2.5-1.3,4.5-3,4.5H3c-1.7,0-3-2-3-4.5v-21C0-8,1.3-10,3-10z"/>
</mask>
<g class="st5">
	<g class="st6">
		<path id="c_2_" class="st7" d="M0,10h28v10H0V10z"/>
	</g>
	<g>
		<path id="c_1_" class="st7" d="M0,10h28v10H0V10z"/>
	</g>
</g>
</svg>
